<svg xmlns="http://www.w3.org/2000/svg" width="20" height="20"><defs><clipPath id="a"><path fill="#fff" d="M0 0h20v20H0z" data-name="Rectangle 658"/></clipPath></defs><g clip-path="url(#a)" data-name="Group 1086"><path fill="#fff" d="M9.714-.337a10.17 10.17 0 0 0-8.82 15.231l-1.311 4.069a.794.794 0 0 0 1 1l4.069-1.31A10.169 10.169 0 1 0 9.714-.337m0 18.749a8.56 8.56 0 0 1-4.541-1.3.8.8 0 0 0-.665-.083l-2.937.946.946-2.937a.8.8 0 0 0-.083-.665 8.58 8.58 0 1 1 7.28 4.038m.993-8.58a.993.993 0 1 1-.993-.993.993.993 0 0 1 .993.993m3.972 0a.993.993 0 1 1-.993-.993.993.993 0 0 1 .993.993m-7.944 0a.993.993 0 1 1-.99-.992.993.993 0 0 1 .993.993" data-name="Path 2668"/></g></svg>