<svg xmlns="http://www.w3.org/2000/svg" width="19" height="19"><defs><clipPath id="a"><path fill="none" d="M-.043-.043h19v19h-19z" data-name="Rectangle 651"/></clipPath></defs><g clip-path="url(#a)" data-name="Group 1079" transform="translate(.043 .043)"><path fill="#fff" d="M9.479 18.579a9.1 9.1 0 1 1 9.1-9.1 9.1 9.1 0 0 1-9.1 9.1m0-16.985a7.886 7.886 0 1 0 7.885 7.885 7.886 7.886 0 0 0-7.885-7.887Z" data-name="Path 2660"/><path fill="none" stroke="#fff" d="M9.479 18.579a9.1 9.1 0 1 1 9.1-9.1 9.1 9.1 0 0 1-9.1 9.1Zm0-16.985a7.886 7.886 0 1 0 7.885 7.885 7.886 7.886 0 0 0-7.885-7.887Z" data-name="Path 2661"/><path fill="#fff" d="m12.051 12.912-3-3a.6.6 0 0 1-.176-.431V4.626h1.213v4.6l2.827 2.821Z" data-name="Path 2662"/><path fill="none" stroke="#fff" d="m12.051 12.912-3-3a.6.6 0 0 1-.176-.431V4.626h1.213v4.6l2.827 2.821Z" data-name="Path 2663"/></g></svg>