<svg xmlns="http://www.w3.org/2000/svg" width="23.899" height="24"><defs><clipPath id="a"><path fill="none" d="M0 0h23.899v24H0z" data-name="Rectangle 653"/></clipPath></defs><g fill="#fff" clip-path="url(#a)" data-name="Group 1081"><path d="M20.7 6.616a2.5 2.5 0 0 1-3.569-3.492l-1.055-1.033L13.931 0 0 14.256l2.137 2.088 1.08 1.056A2.474 2.474 0 1 1 6.9 20.7a2 2 0 0 1-.145.15l1.077 1.06L9.969 24 23.9 9.744Zm-3.8 7.442-6.96 7.124L8.83 20.1a3.953 3.953 0 0 0-4.9-4.8l-1.11-1.082L9.777 7.1 11.2 8.492l1.044-1.068-1.426-1.392 3.129-3.206 1.118 1.094A3.95 3.95 0 0 0 19.96 8.7l1.109 1.082-3.129 3.209-1.367-1.334-1.046 1.07Z" data-name="Path 2664"/><path d="m12.325 9.538 1.008-1.032 2.076 2.028-1.008 1.032z" data-name="Rectangle 652"/></g></svg>